<svg xmlns="http://www.w3.org/2000/svg" width="1600" height="900" viewBox="0 0 1600 900" role="img" aria-label="Takvask i arbeid (plassholder)">
  <rect width="1600" height="900" fill="#2b2b2b"/>
  <rect x="0" y="520" width="1600" height="380" fill="#1f1f1f"/>
  <!-- roof -->
  <polygon points="260,560 800,260 1340,560" fill="#3a3a3a"/>
  <polygon points="320,560 800,310 1280,560" fill="#4a4a4a"/>
  <rect x="720" y="360" width="160" height="200" fill="#2f2f2f"/>
  <!-- worker -->
  <circle cx="1120" cy="430" r="18" fill="#c9c9c9"/>
  <rect x="1108" y="450" width="24" height="52" rx="6" fill="#c9c9c9"/>
  <rect x="1088" y="470" width="18" height="10" fill="#c9c9c9"/>
  <rect x="1134" y="470" width="26" height="10" fill="#c9c9c9"/>
  <!-- hose -->
  <path d="M1160 476 C 1230 500, 1310 520, 1380 560" stroke="#c9c9c9" stroke-width="6" fill="none" stroke-linecap="round"/>
  <!-- water spray -->
  <path d="M1380 560 C 1440 550, 1490 540, 1540 520" stroke="#7fa6a0" stroke-width="5" fill="none" stroke-linecap="round" opacity="0.9"/>
  <path d="M1380 560 C 1440 565, 1490 570, 1540 585" stroke="#7fa6a0" stroke-width="4" fill="none" stroke-linecap="round" opacity="0.75"/>
  <path d="M1380 560 C 1440 585, 1490 605, 1540 640" stroke="#7fa6a0" stroke-width="3" fill="none" stroke-linecap="round" opacity="0.6"/>
  <!-- subtle grain -->
  <g opacity="0.08" fill="#ffffff">
    <circle cx="140" cy="120" r="2"/><circle cx="260" cy="200" r="1.5"/><circle cx="420" cy="160" r="1.5"/>
    <circle cx="640" cy="120" r="2"/><circle cx="760" cy="200" r="1.5"/><circle cx="920" cy="160" r="1.5"/>
    <circle cx="1140" cy="140" r="2"/><circle cx="1280" cy="220" r="1.5"/><circle cx="1460" cy="180" r="1.5"/>
  </g>
</svg>

